<svg xmlns="http://www.w3.org/2000/svg" width="180" height="132" viewBox="0 0 180 132">
  <g id="Group_406" data-name="Group 406" transform="translate(-63 -523)">
    <circle id="Ellipse_1" data-name="Ellipse 1" cx="2" cy="2" r="2" transform="translate(63 651)" fill="#dbdbdb"/>
    <circle id="Ellipse_47" data-name="Ellipse 47" cx="2" cy="2" r="2" transform="translate(63 619)" fill="#dbdbdb"/>
    <circle id="Ellipse_71" data-name="Ellipse 71" cx="2" cy="2" r="2" transform="translate(63 587)" fill="#dbdbdb"/>
    <circle id="Ellipse_76" data-name="Ellipse 76" cx="2" cy="2" r="2" transform="translate(63 555)" fill="#dbdbdb"/>
    <circle id="Ellipse_101" data-name="Ellipse 101" cx="2" cy="2" r="2" transform="translate(63 523)" fill="#dbdbdb"/>
    <circle id="Ellipse_24" data-name="Ellipse 24" cx="2" cy="2" r="2" transform="translate(63 635)" fill="#dbdbdb"/>
    <circle id="Ellipse_48" data-name="Ellipse 48" cx="2" cy="2" r="2" transform="translate(63 603)" fill="#dbdbdb"/>
    <circle id="Ellipse_72" data-name="Ellipse 72" cx="2" cy="2" r="2" transform="translate(63 571)" fill="#dbdbdb"/>
    <circle id="Ellipse_73" data-name="Ellipse 73" cx="2" cy="2" r="2" transform="translate(63 539)" fill="#dbdbdb"/>
    <circle id="Ellipse_8" data-name="Ellipse 8" cx="2" cy="2" r="2" transform="translate(127 651)" fill="#dbdbdb"/>
    <circle id="Ellipse_32" data-name="Ellipse 32" cx="2" cy="2" r="2" transform="translate(127 619)" fill="#dbdbdb"/>
    <circle id="Ellipse_56" data-name="Ellipse 56" cx="2" cy="2" r="2" transform="translate(127 587)" fill="#dbdbdb"/>
    <circle id="Ellipse_81" data-name="Ellipse 81" cx="2" cy="2" r="2" transform="translate(127 555)" fill="#dbdbdb"/>
    <circle id="Ellipse_102" data-name="Ellipse 102" cx="2" cy="2" r="2" transform="translate(127 523)" fill="#dbdbdb"/>
    <circle id="Ellipse_20" data-name="Ellipse 20" cx="2" cy="2" r="2" transform="translate(127 635)" fill="#dbdbdb"/>
    <circle id="Ellipse_33" data-name="Ellipse 33" cx="2" cy="2" r="2" transform="translate(127 603)" fill="#dbdbdb"/>
    <circle id="Ellipse_57" data-name="Ellipse 57" cx="2" cy="2" r="2" transform="translate(127 571)" fill="#dbdbdb"/>
    <circle id="Ellipse_82" data-name="Ellipse 82" cx="2" cy="2" r="2" transform="translate(127 539)" fill="#dbdbdb"/>
    <circle id="Ellipse_12" data-name="Ellipse 12" cx="2" cy="2" r="2" transform="translate(191 651)" fill="#dbdbdb"/>
    <circle id="Ellipse_34" data-name="Ellipse 34" cx="2" cy="2" r="2" transform="translate(191 619)" fill="#dbdbdb"/>
    <circle id="Ellipse_58" data-name="Ellipse 58" cx="2" cy="2" r="2" transform="translate(191 587)" fill="#dbdbdb"/>
    <circle id="Ellipse_89" data-name="Ellipse 89" cx="2" cy="2" r="2" transform="translate(191 555)" fill="#dbdbdb"/>
    <circle id="Ellipse_113" data-name="Ellipse 113" cx="2" cy="2" r="2" transform="translate(191 523)" fill="#dbdbdb"/>
    <circle id="Ellipse_16" data-name="Ellipse 16" cx="2" cy="2" r="2" transform="translate(191 635)" fill="#dbdbdb"/>
    <circle id="Ellipse_28" data-name="Ellipse 28" cx="2" cy="2" r="2" transform="translate(191 603)" fill="#dbdbdb"/>
    <circle id="Ellipse_52" data-name="Ellipse 52" cx="2" cy="2" r="2" transform="translate(191 571)" fill="#dbdbdb"/>
    <circle id="Ellipse_90" data-name="Ellipse 90" cx="2" cy="2" r="2" transform="translate(191 539)" fill="#dbdbdb"/>
    <circle id="Ellipse_4" data-name="Ellipse 4" cx="2" cy="2" r="2" transform="translate(95 651)" fill="#dbdbdb"/>
    <circle id="Ellipse_43" data-name="Ellipse 43" cx="2" cy="2" r="2" transform="translate(95 619)" fill="#dbdbdb"/>
    <circle id="Ellipse_67" data-name="Ellipse 67" cx="2" cy="2" r="2" transform="translate(95 587)" fill="#dbdbdb"/>
    <circle id="Ellipse_77" data-name="Ellipse 77" cx="2" cy="2" r="2" transform="translate(95 555)" fill="#dbdbdb"/>
    <circle id="Ellipse_104" data-name="Ellipse 104" cx="2" cy="2" r="2" transform="translate(95 523)" fill="#dbdbdb"/>
    <circle id="Ellipse_22" data-name="Ellipse 22" cx="2" cy="2" r="2" transform="translate(95 635)" fill="#dbdbdb"/>
    <circle id="Ellipse_44" data-name="Ellipse 44" cx="2" cy="2" r="2" transform="translate(95 603)" fill="#dbdbdb"/>
    <circle id="Ellipse_68" data-name="Ellipse 68" cx="2" cy="2" r="2" transform="translate(95 571)" fill="#dbdbdb"/>
    <circle id="Ellipse_75" data-name="Ellipse 75" cx="2" cy="2" r="2" transform="translate(95 539)" fill="#dbdbdb"/>
    <circle id="Ellipse_5" data-name="Ellipse 5" cx="2" cy="2" r="2" transform="translate(159 651)" fill="#dbdbdb"/>
    <circle id="Ellipse_35" data-name="Ellipse 35" cx="2" cy="2" r="2" transform="translate(159 619)" fill="#dbdbdb"/>
    <circle id="Ellipse_59" data-name="Ellipse 59" cx="2" cy="2" r="2" transform="translate(159 587)" fill="#dbdbdb"/>
    <circle id="Ellipse_85" data-name="Ellipse 85" cx="2" cy="2" r="2" transform="translate(159 555)" fill="#dbdbdb"/>
    <circle id="Ellipse_109" data-name="Ellipse 109" cx="2" cy="2" r="2" transform="translate(159 523)" fill="#dbdbdb"/>
    <circle id="Ellipse_18" data-name="Ellipse 18" cx="2" cy="2" r="2" transform="translate(159 635)" fill="#dbdbdb"/>
    <circle id="Ellipse_30" data-name="Ellipse 30" cx="2" cy="2" r="2" transform="translate(159 603)" fill="#dbdbdb"/>
    <circle id="Ellipse_54" data-name="Ellipse 54" cx="2" cy="2" r="2" transform="translate(159 571)" fill="#dbdbdb"/>
    <circle id="Ellipse_86" data-name="Ellipse 86" cx="2" cy="2" r="2" transform="translate(159 539)" fill="#dbdbdb"/>
    <circle id="Ellipse_9" data-name="Ellipse 9" cx="2" cy="2" r="2" transform="translate(223 651)" fill="#dbdbdb"/>
    <circle id="Ellipse_36" data-name="Ellipse 36" cx="2" cy="2" r="2" transform="translate(223 619)" fill="#dbdbdb"/>
    <circle id="Ellipse_60" data-name="Ellipse 60" cx="2" cy="2" r="2" transform="translate(223 587)" fill="#dbdbdb"/>
    <circle id="Ellipse_93" data-name="Ellipse 93" cx="2" cy="2" r="2" transform="translate(223 555)" fill="#dbdbdb"/>
    <circle id="Ellipse_117" data-name="Ellipse 117" cx="2" cy="2" r="2" transform="translate(223 523)" fill="#dbdbdb"/>
    <circle id="Ellipse_14" data-name="Ellipse 14" cx="2" cy="2" r="2" transform="translate(223 635)" fill="#dbdbdb"/>
    <circle id="Ellipse_25" data-name="Ellipse 25" cx="2" cy="2" r="2" transform="translate(223 603)" fill="#dbdbdb"/>
    <circle id="Ellipse_49" data-name="Ellipse 49" cx="2" cy="2" r="2" transform="translate(223 571)" fill="#dbdbdb"/>
    <circle id="Ellipse_94" data-name="Ellipse 94" cx="2" cy="2" r="2" transform="translate(223 539)" fill="#dbdbdb"/>
    <circle id="Ellipse_2" data-name="Ellipse 2" cx="2" cy="2" r="2" transform="translate(79 651)" fill="#dbdbdb"/>
    <circle id="Ellipse_45" data-name="Ellipse 45" cx="2" cy="2" r="2" transform="translate(79 619)" fill="#dbdbdb"/>
    <circle id="Ellipse_69" data-name="Ellipse 69" cx="2" cy="2" r="2" transform="translate(79 587)" fill="#dbdbdb"/>
    <circle id="Ellipse_78" data-name="Ellipse 78" cx="2" cy="2" r="2" transform="translate(79 555)" fill="#dbdbdb"/>
    <circle id="Ellipse_105" data-name="Ellipse 105" cx="2" cy="2" r="2" transform="translate(79 523)" fill="#dbdbdb"/>
    <circle id="Ellipse_23" data-name="Ellipse 23" cx="2" cy="2" r="2" transform="translate(79 635)" fill="#dbdbdb"/>
    <circle id="Ellipse_46" data-name="Ellipse 46" cx="2" cy="2" r="2" transform="translate(79 603)" fill="#dbdbdb"/>
    <circle id="Ellipse_70" data-name="Ellipse 70" cx="2" cy="2" r="2" transform="translate(79 571)" fill="#dbdbdb"/>
    <circle id="Ellipse_74" data-name="Ellipse 74" cx="2" cy="2" r="2" transform="translate(79 539)" fill="#dbdbdb"/>
    <circle id="Ellipse_7" data-name="Ellipse 7" cx="2" cy="2" r="2" transform="translate(143 651)" fill="#dbdbdb"/>
    <circle id="Ellipse_37" data-name="Ellipse 37" cx="2" cy="2" r="2" transform="translate(143 619)" fill="#dbdbdb"/>
    <circle id="Ellipse_61" data-name="Ellipse 61" cx="2" cy="2" r="2" transform="translate(143 587)" fill="#dbdbdb"/>
    <circle id="Ellipse_83" data-name="Ellipse 83" cx="2" cy="2" r="2" transform="translate(143 555)" fill="#dbdbdb"/>
    <circle id="Ellipse_107" data-name="Ellipse 107" cx="2" cy="2" r="2" transform="translate(143 523)" fill="#dbdbdb"/>
    <circle id="Ellipse_19" data-name="Ellipse 19" cx="2" cy="2" r="2" transform="translate(143 635)" fill="#dbdbdb"/>
    <circle id="Ellipse_31" data-name="Ellipse 31" cx="2" cy="2" r="2" transform="translate(143 603)" fill="#dbdbdb"/>
    <circle id="Ellipse_55" data-name="Ellipse 55" cx="2" cy="2" r="2" transform="translate(143 571)" fill="#dbdbdb"/>
    <circle id="Ellipse_84" data-name="Ellipse 84" cx="2" cy="2" r="2" transform="translate(143 539)" fill="#dbdbdb"/>
    <circle id="Ellipse_11" data-name="Ellipse 11" cx="2" cy="2" r="2" transform="translate(207 651)" fill="#dbdbdb"/>
    <circle id="Ellipse_38" data-name="Ellipse 38" cx="2" cy="2" r="2" transform="translate(207 619)" fill="#dbdbdb"/>
    <circle id="Ellipse_62" data-name="Ellipse 62" cx="2" cy="2" r="2" transform="translate(207 587)" fill="#dbdbdb"/>
    <circle id="Ellipse_91" data-name="Ellipse 91" cx="2" cy="2" r="2" transform="translate(207 555)" fill="#dbdbdb"/>
    <circle id="Ellipse_115" data-name="Ellipse 115" cx="2" cy="2" r="2" transform="translate(207 523)" fill="#dbdbdb"/>
    <circle id="Ellipse_15" data-name="Ellipse 15" cx="2" cy="2" r="2" transform="translate(207 635)" fill="#dbdbdb"/>
    <circle id="Ellipse_26" data-name="Ellipse 26" cx="2" cy="2" r="2" transform="translate(207 603)" fill="#dbdbdb"/>
    <circle id="Ellipse_50" data-name="Ellipse 50" cx="2" cy="2" r="2" transform="translate(207 571)" fill="#dbdbdb"/>
    <circle id="Ellipse_92" data-name="Ellipse 92" cx="2" cy="2" r="2" transform="translate(207 539)" fill="#dbdbdb"/>
    <circle id="Ellipse_3" data-name="Ellipse 3" cx="2" cy="2" r="2" transform="translate(111 651)" fill="#dbdbdb"/>
    <circle id="Ellipse_41" data-name="Ellipse 41" cx="2" cy="2" r="2" transform="translate(111 619)" fill="#dbdbdb"/>
    <circle id="Ellipse_65" data-name="Ellipse 65" cx="2" cy="2" r="2" transform="translate(111 587)" fill="#dbdbdb"/>
    <circle id="Ellipse_79" data-name="Ellipse 79" cx="2" cy="2" r="2" transform="translate(111 555)" fill="#dbdbdb"/>
    <circle id="Ellipse_106" data-name="Ellipse 106" cx="2" cy="2" r="2" transform="translate(111 523)" fill="#dbdbdb"/>
    <circle id="Ellipse_21" data-name="Ellipse 21" cx="2" cy="2" r="2" transform="translate(111 635)" fill="#dbdbdb"/>
    <circle id="Ellipse_42" data-name="Ellipse 42" cx="2" cy="2" r="2" transform="translate(111 603)" fill="#dbdbdb"/>
    <circle id="Ellipse_66" data-name="Ellipse 66" cx="2" cy="2" r="2" transform="translate(111 571)" fill="#dbdbdb"/>
    <circle id="Ellipse_80" data-name="Ellipse 80" cx="2" cy="2" r="2" transform="translate(111 539)" fill="#dbdbdb"/>
    <circle id="Ellipse_6" data-name="Ellipse 6" cx="2" cy="2" r="2" transform="translate(175 651)" fill="#dbdbdb"/>
    <circle id="Ellipse_39" data-name="Ellipse 39" cx="2" cy="2" r="2" transform="translate(175 619)" fill="#dbdbdb"/>
    <circle id="Ellipse_63" data-name="Ellipse 63" cx="2" cy="2" r="2" transform="translate(175 587)" fill="#dbdbdb"/>
    <circle id="Ellipse_87" data-name="Ellipse 87" cx="2" cy="2" r="2" transform="translate(175 555)" fill="#dbdbdb"/>
    <circle id="Ellipse_111" data-name="Ellipse 111" cx="2" cy="2" r="2" transform="translate(175 523)" fill="#dbdbdb"/>
    <circle id="Ellipse_17" data-name="Ellipse 17" cx="2" cy="2" r="2" transform="translate(175 635)" fill="#dbdbdb"/>
    <circle id="Ellipse_29" data-name="Ellipse 29" cx="2" cy="2" r="2" transform="translate(175 603)" fill="#dbdbdb"/>
    <circle id="Ellipse_53" data-name="Ellipse 53" cx="2" cy="2" r="2" transform="translate(175 571)" fill="#dbdbdb"/>
    <circle id="Ellipse_88" data-name="Ellipse 88" cx="2" cy="2" r="2" transform="translate(175 539)" fill="#dbdbdb"/>
    <circle id="Ellipse_10" data-name="Ellipse 10" cx="2" cy="2" r="2" transform="translate(239 651)" fill="#dbdbdb"/>
    <circle id="Ellipse_40" data-name="Ellipse 40" cx="2" cy="2" r="2" transform="translate(239 619)" fill="#dbdbdb"/>
    <circle id="Ellipse_64" data-name="Ellipse 64" cx="2" cy="2" r="2" transform="translate(239 587)" fill="#dbdbdb"/>
    <circle id="Ellipse_95" data-name="Ellipse 95" cx="2" cy="2" r="2" transform="translate(239 555)" fill="#dbdbdb"/>
    <circle id="Ellipse_119" data-name="Ellipse 119" cx="2" cy="2" r="2" transform="translate(239 523)" fill="#dbdbdb"/>
    <circle id="Ellipse_13" data-name="Ellipse 13" cx="2" cy="2" r="2" transform="translate(239 635)" fill="#dbdbdb"/>
    <circle id="Ellipse_27" data-name="Ellipse 27" cx="2" cy="2" r="2" transform="translate(239 603)" fill="#dbdbdb"/>
    <circle id="Ellipse_51" data-name="Ellipse 51" cx="2" cy="2" r="2" transform="translate(239 571)" fill="#dbdbdb"/>
    <circle id="Ellipse_96" data-name="Ellipse 96" cx="2" cy="2" r="2" transform="translate(239 539)" fill="#dbdbdb"/>
  </g>
</svg>
