<svg xmlns="http://www.w3.org/2000/svg" width="36.164" height="41.33" viewBox="0 0 36.164 41.33">
  <path id="icon-bell" d="M18.077,38.747a2.587,2.587,0,0,1-2.583-2.586H12.911a5.166,5.166,0,1,0,10.333,0H20.661A2.587,2.587,0,0,1,18.077,38.747Zm16.9-11.72C32.722,24.878,31,22.629,31,15.006a12.6,12.6,0,0,0-11.627-12.3V1.292a1.292,1.292,0,1,0-2.583,0V2.709a12.594,12.594,0,0,0-11.627,12.3c0,7.622-1.727,9.872-3.984,12.02a3.757,3.757,0,0,0-.908,4.135,3.852,3.852,0,0,0,3.6,2.418H32.285a3.853,3.853,0,0,0,3.6-2.419A3.756,3.756,0,0,0,34.979,27.027ZM32.285,31H3.87a1.225,1.225,0,0,1-.914-2.1c2.814-2.679,4.785-5.678,4.785-13.891A10.092,10.092,0,0,1,18.077,5.166a10.092,10.092,0,0,1,10.336,9.84c0,8.181,1.954,11.2,4.785,13.891A1.226,1.226,0,0,1,32.285,31Z" transform="translate(0.005)" fill="#3454d1"/>
</svg>
