<svg xmlns="http://www.w3.org/2000/svg" width="44" height="44" viewBox="0 0 44 44">
  <g id="icon-wordpress" transform="translate(-552 -1425)">
    <circle id="Ellipse_28" data-name="Ellipse 28" cx="22" cy="22" r="22" transform="translate(552 1425)" fill="#3454d1"/>
    <path id="wordpress-brands" d="M10.274,14.833l4.3,11.77a9.009,9.009,0,0,1-4.3-11.77ZM24.58,18.047a4.75,4.75,0,0,0-.741-2.485,4.212,4.212,0,0,1-.885-2.113,1.559,1.559,0,0,1,1.511-1.6c.038,0,.076,0,.119.008a9.006,9.006,0,0,0-13.612,1.694c.212.008.411.013.58.013.94,0,2.4-.114,2.4-.114a.372.372,0,0,1,.059.741s-.487.055-1.029.085l3.281,9.755,1.973-5.91-1.4-3.844c-.487-.03-.944-.085-.944-.085a.372.372,0,0,1,.055-.741s1.486.114,2.371.114c.94,0,2.4-.114,2.4-.114a.372.372,0,0,1,.059.741s-.487.055-1.029.085L23,23.957l.9-3A11.118,11.118,0,0,0,24.58,18.047Zm-5.923,1.241-2.7,7.854A8.975,8.975,0,0,0,21.489,27a.675.675,0,0,1-.064-.123Zm7.748-5.11a7.017,7.017,0,0,1,.059.927,8.462,8.462,0,0,1-.686,3.226l-2.752,7.955A9.016,9.016,0,0,0,26.4,14.177ZM29,18.5A10.5,10.5,0,1,1,18.5,8,10.512,10.512,0,0,1,29,18.5Zm-.483,0A10.017,10.017,0,1,0,18.5,28.517,10.029,10.029,0,0,0,28.517,18.5Z" transform="translate(556 1429)" fill="#fff"/>
  </g>
</svg>
