<svg xmlns="http://www.w3.org/2000/svg" width="30.997" height="41.33" viewBox="0 0 30.997 41.33">
  <path id="icon-report" d="M10.978,25.831H9.687a.648.648,0,0,0-.646.646v7.749a.648.648,0,0,0,.646.646h1.292a.648.648,0,0,0,.646-.646V26.477A.648.648,0,0,0,10.978,25.831Zm5.166-7.749H14.853a.648.648,0,0,0-.646.646v15.5a.648.648,0,0,0,.646.646h1.292a.648.648,0,0,0,.646-.646v-15.5A.648.648,0,0,0,16.145,18.082Zm3.229,5.812V34.226a.648.648,0,0,0,.646.646h1.292a.648.648,0,0,0,.646-.646V23.894a.648.648,0,0,0-.646-.646H20.019A.648.648,0,0,0,19.373,23.894ZM29.859,7.909,23.088,1.138A3.874,3.874,0,0,0,20.353,0H3.874A3.887,3.887,0,0,0,0,3.882V37.456A3.875,3.875,0,0,0,3.874,41.33h23.25A3.875,3.875,0,0,0,31,37.456v-26.8a3.893,3.893,0,0,0-1.138-2.744ZM20.667,2.631a1.27,1.27,0,0,1,.6.339l6.771,6.771a1.27,1.27,0,0,1,.339.6H20.667Zm7.748,34.825a1.3,1.3,0,0,1-1.292,1.292H3.874a1.3,1.3,0,0,1-1.292-1.292V3.882a1.3,1.3,0,0,1,1.292-1.3h14.21v8.4a1.928,1.928,0,0,0,1.937,1.932h8.394Z" fill="#3454d1"/>
</svg>
