<svg xmlns="http://www.w3.org/2000/svg" width="44" height="44" viewBox="0 0 44 44">
  <g id="icon-single-property-website" transform="translate(-881 -1220)">
    <circle id="Ellipse_30" data-name="Ellipse 30" cx="22" cy="22" r="22" transform="translate(881 1220)" fill="#3454d1"/>
    <path id="icon-house" d="M10.626,36.474l-7,5.763v6.22a.607.607,0,0,0,.607.607l4.253-.011a.607.607,0,0,0,.6-.607V44.814a.607.607,0,0,1,.607-.607h2.429a.607.607,0,0,1,.607.607v3.63a.607.607,0,0,0,.607.609l4.251.012a.607.607,0,0,0,.607-.607V42.233l-7-5.759a.463.463,0,0,0-.581,0Zm11.053,3.917-9.607-7.912a1.822,1.822,0,0,0-2.315,0L.15,40.391a.455.455,0,0,0-.061.641l.968,1.177a.455.455,0,0,0,.642.062l8.927-7.353a.463.463,0,0,1,.581,0l8.927,7.353a.455.455,0,0,0,.641-.061l.968-1.177a.455.455,0,0,0-.065-.643Z" transform="translate(892.016 1200.936)" fill="#fff"/>
  </g>
</svg>
