<svg xmlns="http://www.w3.org/2000/svg" width="31" height="41.334" viewBox="0 0 31 41.334">
  <path id="icon-location" d="M15.5,7.75a7.75,7.75,0,1,0,7.75,7.75A7.759,7.759,0,0,0,15.5,7.75Zm0,12.917A5.167,5.167,0,1,1,20.667,15.5,5.173,5.173,0,0,1,15.5,20.667ZM15.5,0A15.5,15.5,0,0,0,0,15.5c0,6.25,2.177,7.995,13.907,25a1.938,1.938,0,0,0,3.186,0C28.823,23.495,31,21.75,31,15.5A15.5,15.5,0,0,0,15.5,0Zm0,38.26C4.255,22,2.583,20.707,2.583,15.5a12.917,12.917,0,0,1,22.05-9.134A12.832,12.832,0,0,1,28.417,15.5C28.417,20.706,26.746,22,15.5,38.26Z" fill="#3454d1"/>
</svg>
