<svg xmlns="http://www.w3.org/2000/svg" width="44" height="44" viewBox="0 0 44 44">
  <g id="icon-youtube-video" transform="translate(-552 -1014)">
    <circle id="Ellipse_26" data-name="Ellipse 26" cx="22" cy="22" r="22" transform="translate(552 1014)" fill="#3454d1"/>
    <path id="youtube-brands" d="M34.428,66.191a2.5,2.5,0,0,0-1.76-1.772C31.115,64,24.889,64,24.889,64s-6.226,0-7.779.419a2.5,2.5,0,0,0-1.76,1.772,28.169,28.169,0,0,0,0,9.647,2.465,2.465,0,0,0,1.76,1.743C18.662,78,24.889,78,24.889,78s6.226,0,7.779-.419a2.465,2.465,0,0,0,1.76-1.743,28.169,28.169,0,0,0,0-9.647ZM22.852,73.975V68.054l5.2,2.961Z" transform="translate(549.067 965)" fill="#fff"/>
  </g>
</svg>
