<svg xmlns="http://www.w3.org/2000/svg" width="12.25" height="14" viewBox="0 0 12.25 14">
  <path id="icon-share" d="M9.625,8.75a2.61,2.61,0,0,0-1.807.722L5.13,7.79a2.641,2.641,0,0,0,0-1.58L7.818,4.528A2.625,2.625,0,1,0,7,2.625a2.662,2.662,0,0,0,.12.79L4.432,5.1a2.625,2.625,0,1,0,0,3.806L7.12,10.585a2.676,2.676,0,0,0-.12.79A2.625,2.625,0,1,0,9.625,8.75Zm0-7.437A1.313,1.313,0,1,1,8.313,2.625,1.313,1.313,0,0,1,9.625,1.313Zm-7,7A1.313,1.313,0,1,1,3.938,7,1.313,1.313,0,0,1,2.625,8.313Zm7,4.375a1.313,1.313,0,1,1,1.313-1.312A1.313,1.313,0,0,1,9.625,12.688Z" fill="#727272"/>
</svg>
