<svg xmlns="http://www.w3.org/2000/svg" width="14.664" height="14" viewBox="0 0 14.664 14">
  <g id="noun_Star_3325744" transform="translate(-2.363 -3.7)">
    <g id="Group_223" data-name="Group 223" transform="translate(2.363 3.7)">
      <path id="Path_162" data-name="Path 162" d="M16.867,9.535l-3.347,3.1.873,4.477a.506.506,0,0,1-.742.527L9.694,15.412l-4,2.214a.495.495,0,0,1-.725-.527l.886-4.475L2.521,9.515a.495.495,0,0,1,.28-.853L7.329,8.12,9.251,3.984a.49.49,0,0,1,.89,0l1.922,4.141,4.529.552a.495.495,0,0,1,.275.856Z" transform="translate(-2.363 -3.7)" fill="#309d32"/>
    </g>
  </g>
</svg>
