<svg xmlns="http://www.w3.org/2000/svg" width="44" height="44" viewBox="0 0 44 44">
  <g id="icon-craigslist" transform="translate(-549 -1201)">
    <g id="Group_416" data-name="Group 416">
      <circle id="Ellipse_29" data-name="Ellipse 29" cx="22" cy="22" r="22" transform="translate(549 1201)" fill="#3454d1"/>
      <path id="peace-solid" d="M10,8A10,10,0,1,0,20,18,10,10,0,0,0,10,8Zm7.419,10a7.371,7.371,0,0,1-.91,3.555L11.29,17.38V10.7A7.426,7.426,0,0,1,17.419,18ZM8.71,25.3a7.387,7.387,0,0,1-3.6-1.735l3.6-2.881Zm2.581-4.615,3.6,2.88a7.387,7.387,0,0,1-3.6,1.735ZM8.71,10.7v6.68L3.491,21.555A7.409,7.409,0,0,1,8.71,10.7Z" transform="translate(561 1205)" fill="#fff"/>
    </g>
  </g>
</svg>
