<svg xmlns="http://www.w3.org/2000/svg" width="44" height="44" viewBox="0 0 44 44">
  <g id="icon-facebook" transform="translate(-881 -1015)">
    <g id="Group_441" data-name="Group 441">
      <circle id="Ellipse_31" data-name="Ellipse 31" cx="22" cy="22" r="22" transform="translate(881 1015)" fill="#3454d1"/>
      <path id="facebook-brands" d="M28.122,18.061A10.061,10.061,0,1,0,16.489,28V20.969H13.933V18.061h2.556V15.844a3.55,3.55,0,0,1,3.8-3.914,15.483,15.483,0,0,1,2.252.2V14.6H21.272a1.454,1.454,0,0,0-1.639,1.571v1.888h2.79l-.446,2.908H19.633V28A10.064,10.064,0,0,0,28.122,18.061Z" transform="translate(885 1019)" fill="#fff"/>
    </g>
  </g>
</svg>
