<svg xmlns="http://www.w3.org/2000/svg" width="44" height="44" viewBox="0 0 44 44">
  <g id="icon-eflyers" transform="translate(-549 -810)">
    <circle id="Ellipse_23" data-name="Ellipse 23" cx="22" cy="22" r="22" transform="translate(549 810)" fill="#3454d1"/>
    <path id="print-solid" d="M15.75,6.75V2.716a1.126,1.126,0,0,0-.329-.8L13.829.329a1.125,1.125,0,0,0-.8-.329H3.375A1.125,1.125,0,0,0,2.25,1.125V6.75A2.25,2.25,0,0,0,0,9v3.938a.562.562,0,0,0,.563.563H2.25v3.375A1.125,1.125,0,0,0,3.375,18h11.25a1.125,1.125,0,0,0,1.125-1.125V13.5h1.687A.562.562,0,0,0,18,12.938V9A2.25,2.25,0,0,0,15.75,6.75Zm-2.25,9h-9V12.375h9Zm0-7.875h-9V2.25h6.75V3.938a.562.562,0,0,0,.563.562H13.5Zm1.688,2.531a.844.844,0,1,1,.844-.844A.844.844,0,0,1,15.188,10.406Z" transform="translate(562 823)" fill="#fff"/>
  </g>
</svg>
