<svg xmlns="http://www.w3.org/2000/svg" width="44" height="44" viewBox="0 0 44 44">
  <g id="icon-virtual-tours" transform="translate(-225 -1014)">
    <circle id="Ellipse_37" data-name="Ellipse 37" cx="22" cy="22" r="22" transform="translate(225 1014)" fill="#3454d1"/>
    <path id="vr-cardboard-solid" d="M20.583,64H1.083A1.083,1.083,0,0,0,0,65.083V75.917A1.083,1.083,0,0,0,1.083,77H6.507a2.166,2.166,0,0,0,1.976-1.278l.939-2.087a1.512,1.512,0,0,1,2.822,0l.939,2.087A2.166,2.166,0,0,0,15.159,77h5.424a1.083,1.083,0,0,0,1.083-1.083V65.083A1.083,1.083,0,0,0,20.583,64ZM5.417,72.125a2.167,2.167,0,1,1,2.167-2.167A2.166,2.166,0,0,1,5.417,72.125Zm10.833,0a2.167,2.167,0,1,1,2.167-2.167A2.166,2.166,0,0,1,16.25,72.125Z" transform="translate(236 965)" fill="#fff"/>
  </g>
</svg>
