<?xml version="1.0" encoding="utf-8"?>
<!-- Generator: Adobe Illustrator 24.1.0, SVG Export Plug-In . SVG Version: 6.00 Build 0)  -->
<svg version="1.1" id="Layer_1" xmlns="http://www.w3.org/2000/svg" xmlns:xlink="http://www.w3.org/1999/xlink" x="0px" y="0px"
	 width="138px" height="24.32px" viewBox="0 0 138 24.32" style="enable-background:new 0 0 138 24.32;" xml:space="preserve">
<style type="text/css">
	.st0{fill:#3454D1;}
	.st1{fill:#222222;}
</style>
<g>
	<path class="st0" d="M1.88,2.93C1.57,2.04,1.31,1.83,0,1.62V0.78h7.53v0.84C5.96,1.8,5.52,2.04,5.99,3.27l4.24,11.77h0.05
		l3.66-11.3c0.52-1.57,0.03-1.86-2.09-2.12V0.78h5.86v0.84c-1.44,0.26-1.78,0.39-2.12,1.46l-5.31,16.13h-2.3L1.88,2.93z"/>
	<path class="st0" d="M22.52,17.26c0,0.86,0.18,0.94,1.78,1.07v0.76h-7.19v-0.76c1.59-0.13,1.78-0.21,1.78-1.07V8.86
		c0-1.02-0.18-1.1-1.78-1.23V6.88l4.99-1.12h0.42V17.26z M20.61,0.73c1.23,0,2.2,0.71,2.2,1.94c0,1.23-0.97,1.88-2.2,1.88
		c-1.23,0-2.22-0.65-2.22-1.88C18.39,1.44,19.39,0.73,20.61,0.73z"/>
	<path class="st0" d="M24.98,12.55c0-3.79,2.59-6.8,6.56-6.8c3.98,0,6.56,3.01,6.56,6.8c0,3.79-2.59,6.8-6.56,6.8
		C27.57,19.35,24.98,16.34,24.98,12.55z M28.83,12.55c0,3.92,0.99,5.6,2.72,5.6c1.73,0,2.72-1.67,2.72-5.6c0-3.92-0.99-5.6-2.72-5.6
		C29.82,6.96,28.83,8.63,28.83,12.55z"/>
	<path class="st0" d="M44.47,17.26c0,0.86,0.18,0.94,1.78,1.07v0.76h-7.19v-0.76c1.59-0.13,1.78-0.21,1.78-1.07V2.59
		c0-1.02-0.18-1.1-1.78-1.23V0.6L44.05,0h0.42V17.26z"/>
	<path class="st0" d="M57.76,16.79c0,0.44,0.26,0.68,0.68,0.68c0.37,0,0.73-0.16,1.15-0.42l0.13,0.78
		c-0.99,0.78-2.35,1.52-3.69,1.52c-1.36,0-1.91-0.78-1.91-1.73v-0.37h-0.05c-1.02,1.28-2.35,2.09-3.92,2.09
		c-1.99,0-3.09-1.33-3.09-3.03c0-1.62,1.23-3.74,7.06-4.13V9.78c0-1.57-0.76-2.69-2.33-2.69c-1.23,0-2.01,0.78-2.01,1.52
		c0,0.68,0.65,0.81,0.65,1.54c0,0.57-0.6,1.02-1.49,1.02c-0.76,0-1.49-0.37-1.49-1.28c0-1.39,1.96-4.13,5.67-4.13
		c3.03,0,4.65,1.73,4.63,3.95V16.79z M54.13,13.18c-2.33,0.31-3.37,1.05-3.37,2.33c0,0.89,0.58,1.46,1.41,1.46
		c0.68,0,1.36-0.37,1.96-0.78V13.18z"/>
	<path class="st1" d="M80,16.73v-4c0-1.07-0.23-1.1-2.25-1.23v-0.63h6.3v0.63c-1.59,0.13-1.83,0.16-1.83,1.23v6.49H81.8l-0.89-1.57
		c-1.15,0.86-2.85,1.7-4.97,1.7c-4.94,0-8.71-3.92-8.71-9.41s3.87-9.41,8.81-9.41c2.61,0,4.55,0.91,5.6,1.57l0.26,3.64h-0.63
		c-0.52-2.3-2.09-4.26-5.23-4.26c-3.61,0-6.43,3.24-6.43,8.47c0,5.23,2.77,8.47,6.38,8.47C77.75,18.41,79.08,17.7,80,16.73z"/>
	<path class="st1" d="M84.82,18.49c2.01-0.13,2.25-0.16,2.25-1.23V8.71c0-1.13-0.24-1.15-2.25-1.28v-0.6l4.1-1.07h0.31l-0.13,3.01
		h0.13c1.39-1.99,2.64-3.01,4.08-3.01c0.79,0,1.44,0.47,1.44,1.33c0,0.63-0.44,1.2-1.15,1.2c-0.63,0-0.94-0.39-1.62-0.39
		c-0.89,0-1.81,0.63-2.75,1.73v7.64c0,1.07,0.24,1.1,2.77,1.23v0.6h-7.19V18.49z"/>
	<path class="st1" d="M95.13,12.55c0-3.79,2.43-6.8,6.2-6.8c3.76,0,6.2,3.01,6.2,6.8c0,3.79-2.43,6.8-6.2,6.8
		C97.56,19.35,95.13,16.34,95.13,12.55z M97.45,12.55c0,3.92,1.46,5.96,3.87,5.96s3.87-2.04,3.87-5.96c0-3.92-1.46-5.96-3.87-5.96
		S97.45,8.63,97.45,12.55z"/>
	<path class="st1" d="M119.24,8.71c0-1.13-0.23-1.15-2.77-1.28v-0.6l4.63-1.07h0.31v11.17c0,1.13,0.24,1.15,2.25,1.28v0.6
		l-3.95,0.55h-0.31l-0.03-2.75h-0.13c-1.28,1.54-3.11,2.75-5.02,2.75c-1.78,0-3.32-1.05-3.32-3.92V8.71c0-1.13-0.23-1.15-2.25-1.28
		v-0.6l4.1-1.07h0.32v9.6c0,1.41,0.7,2.33,2.12,2.33c1.67,0,3.14-0.94,4.05-1.83V8.71z"/>
	<path class="st1" d="M128.53,7.61c0.97-1.05,2.54-1.86,4.1-1.86c3.37,0,5.36,2.88,5.36,6.8c0,4.29-2.9,6.8-6.09,6.8
		c-0.92,0-2.48-0.24-3.37-0.94v4.08c0,1.07,0.23,1.1,2.25,1.23v0.6h-6.67v-0.6c2.01-0.13,2.25-0.16,2.25-1.23V8.71
		c0-1.13-0.23-1.15-2.25-1.28v-0.6l4.1-1.07h0.32l-0.13,1.86H128.53z M128.53,8.42v6.35c0,2.96,1.75,3.74,3.03,3.74
		c2.83,0,4.1-2.48,4.1-5.91c0-3.74-1.85-5.49-4.03-5.49C130.36,7.11,129.29,7.77,128.53,8.42z"/>
</g>
</svg>
