<svg xmlns="http://www.w3.org/2000/svg" width="18.878" height="15.35" viewBox="0 0 18.878 15.35">
  <path id="Path_191" data-name="Path 191" d="M95.623,129.85a10.952,10.952,0,0,0,11.027-11.027c0-.169,0-.338-.008-.5a7.94,7.94,0,0,0,1.937-2.009,7.867,7.867,0,0,1-2.226.611,3.873,3.873,0,0,0,1.7-2.146,7.847,7.847,0,0,1-2.459.94,3.878,3.878,0,0,0-6.7,2.652,3.551,3.551,0,0,0,.1.884,10.994,10.994,0,0,1-7.989-4.051,3.874,3.874,0,0,0,1.206,5.168,3.807,3.807,0,0,1-1.752-.482v.048a3.88,3.88,0,0,0,3.11,3.8,3.863,3.863,0,0,1-1.021.137,3.7,3.7,0,0,1-.731-.072,3.869,3.869,0,0,0,3.617,2.692,7.79,7.79,0,0,1-4.814,1.656,7.051,7.051,0,0,1-.924-.056,10.8,10.8,0,0,0,5.923,1.752" transform="translate(-89.7 -114.5)" fill="#fff"/>
</svg>
