<svg xmlns="http://www.w3.org/2000/svg" width="108.8" height="45.39" viewBox="0 0 108.8 45.39">
  <path id="Path_204" data-name="Path 204" d="M57.63,24.21l1.19-4.25h0l1.53,4.25h.85l1.36-5.27h-.68l-1.19,4.25h0l-1.53-4.25h-.85l-1.36,5.27Zm-1.87,0,1.36-5.27h-.68l-1.36,5.27Zm16.49,0a2.535,2.535,0,0,0,2.55-1.53.994.994,0,0,0-.85-1.36l-1.36-.34c-.34,0-.51-.17-.51-.68.17-.85,1.02-.85,1.53-.85.68,0,1.19.17,1.02,1.02h.68c.17-.51.17-1.7-1.7-1.7a2.447,2.447,0,0,0-2.38,1.7.934.934,0,0,0,.85,1.19l1.02.17c.85.17,1.02.34.85.85-.17.68-1.19.85-1.7.85-.68,0-1.36-.34-1.19-1.19h-.68a1.331,1.331,0,0,0,.17,1.36C70.89,24.04,71.23,24.21,72.25,24.21Zm-20.57,0h.68l1.19-4.59h1.87l.17-.68H51.17l-.17.68h1.87Zm-6.29-5.27h-.68l-1.36,5.27h.68ZM42.5,23.53H39.78l1.19-4.59h-.68l-1.36,5.27h3.4Zm3.23.17a1.871,1.871,0,0,0,1.53.51,2.535,2.535,0,0,0,2.55-1.53.994.994,0,0,0-.85-1.36l-1.53-.34c-.34,0-.51-.17-.51-.68.17-.85,1.02-.85,1.53-.85.68,0,1.19.17,1.02,1.02h.68c.17-.51.17-1.7-1.7-1.7a2.447,2.447,0,0,0-2.38,1.7.934.934,0,0,0,.85,1.19l1.02.17c.85.17,1.02.34.85.85-.17.68-1.19.85-1.7.85-.68,0-1.36-.34-1.19-1.19h-.68C45.39,23.02,45.39,23.36,45.73,23.7Zm49.3.51a3.321,3.321,0,0,0,2.89-2.04h-.68a2.1,2.1,0,0,1-1.87,1.36c-1.36,0-1.53-1.02-1.19-2.21a2.484,2.484,0,0,1,2.38-2.04c.51,0,1.19.17,1.19,1.02h.68c.17-.85-.34-1.7-1.7-1.7a3.432,3.432,0,0,0-3.23,2.72C92.82,23.53,93.84,24.21,95.03,24.21Zm7.48-.68H99.28l.51-1.7h2.89l.17-.68H99.96l.51-1.53h3.23l.17-.68H99.96L98.6,24.21h3.91Zm-10.88.68,1.36-5.27h-.68l-1.36,5.27Zm-12.07-.68H76.33l.51-1.7h2.89l.17-.68H77.01l.51-1.53h3.23l.17-.68H77.01l-1.36,5.27h3.91Zm8.5.68,3.4-5.27h-.85l-2.72,4.42h0l-.34-4.42H86.7l.51,5.27Zm-6.8,0L81.94,22h1.7c.85,0,.85.51.68.85,0,.17-.17,1.02-.17,1.36H85v-.17c-.17-.17-.17-.17-.17-.51L85,22.51a.844.844,0,0,0-.34-1.02,1.835,1.835,0,0,0,1.02-1.19c.34-1.19-.51-1.36-1.36-1.36H81.77l-1.36,5.27Zm1.19-4.76h1.87c.34,0,1.02,0,.68.85-.17.85-.85.85-1.36.85h-1.7Zm6.63,10.03c-7.31,0-13.26,3.06-14.96,9.18-2.89,11.05,14.45,7.99,13.43,12.41-.34,1.36-2.04,2.21-4.42,2.21a4.427,4.427,0,0,1-2.55-.68,2.526,2.526,0,0,1-1.02-2.21H70.55c-1.36,5.27,2.55,9.69,10.2,9.69,7.99,0,14.45-3.23,16.15-10.03,2.89-10.54-14.62-7.82-13.43-12.24.17-1.02,1.36-1.7,3.4-1.7a5.43,5.43,0,0,1,2.38.51,1.974,1.974,0,0,1,.85,2.04h9.01C99.79,33.73,97.07,29.48,89.08,29.48ZM4.42,24.21H5.1l1.36-5.27H5.61L2.89,23.36h0l-.34-4.42H1.36L0,24.21H.68l.85-3.23a7.647,7.647,0,0,1,.34-1.36h0l.34,4.42h.68l2.72-4.42h0a3.517,3.517,0,0,1-.34,1.36Zm31.11,5.95L26.69,43.93l.34-13.77H14.11L5.1,59.4h8.5l5.27-15.64L18.36,59.4h6.63L35.02,43.76,29.75,59.4h8.67l9.01-29.24H35.53Zm30.6-11.39a3.459,3.459,0,0,0-3.23,2.72,2.575,2.575,0,0,0,.17,2.21c.17.34.51.51,1.53.51a3.137,3.137,0,0,0,2.04-.85v.68h.51L68,21.32H65.62l-.17.68h1.7a1.975,1.975,0,0,1-1.02,1.36,1.833,1.833,0,0,1-1.19.34c-1.36,0-1.53-1.02-1.19-2.21a2.484,2.484,0,0,1,2.38-2.04c.51,0,1.36.17,1.36,1.02H68C68.17,19.28,67.15,18.77,66.13,18.77ZM36.04,23.53H32.81l.51-1.7h2.89l.17-.68H33.49L34,19.62h3.23l.17-.68H33.49l-1.36,5.27h3.91Zm65.79,35.19h.68V61.1h.34V58.72h.85v-.34h-1.87Zm2.72-3.23a4.25,4.25,0,1,0,0,8.5h0a4.25,4.25,0,0,0,0-8.5Zm0,7.82h0a3.57,3.57,0,1,1,3.57-3.57A3.591,3.591,0,0,1,104.55,63.31Zm1.02-2.72-.68-2.21h-.68V61.1h.34V58.72h0l.85,2.38h.34l.85-2.38h0V61.1h.51V58.38h-.68ZM62.39,30.33H52.87L43.86,59.57H64.43l2.72-9.18H56.1ZM23.46,24.21,24.14,22h1.7a2.07,2.07,0,0,0,2.04-1.53c.17-.85-.17-1.53-1.19-1.53H24.31l-1.36,5.27h.51Zm1.19-4.76h1.53c.68,0,1.02.17.85.85a1.293,1.293,0,0,1-1.36,1.02H24.14Zm-3.23,4.76,1.36-5.27H22.1l-1.36,5.27Zm9.69,0,.17-.68H28.56l1.19-4.59h-.68l-1.36,5.27Zm-13.77,0h.68l1.19-4.59h1.87l.17-.68H16.83l-.17.68h1.87Zm-2.21,0,.17-.68H12.58l1.19-4.59h-.68l-1.36,5.27Zm-6.8,0a2.62,2.62,0,0,0,2.72-2.04l1.02-3.4h-.85L10.37,22A1.729,1.729,0,0,1,8.5,23.36c-.68,0-1.36-.34-1.02-1.53L8.5,18.94H7.82L6.8,22.34C6.46,23.36,6.97,24.21,8.33,24.21Z" transform="translate(0 -18.6)" fill="#222"/>
</svg>
