<svg xmlns="http://www.w3.org/2000/svg" width="16" height="16" viewBox="0 0 16 16">
  <path id="Path" d="M8,0A8,8,0,0,0,5.081,15.447a7.7,7.7,0,0,1,.026-2.3c.145-.625.935-3.975.935-3.975A2.913,2.913,0,0,1,5.805,7.99c0-1.112.645-1.942,1.448-1.942A1,1,0,0,1,8.267,7.174,15.811,15.811,0,0,1,7.6,9.84a1.163,1.163,0,0,0,1.185,1.448c1.422,0,2.514-1.5,2.514-3.659A3.156,3.156,0,0,0,7.957,4.377,3.461,3.461,0,0,0,4.344,7.845a3.121,3.121,0,0,0,.592,1.823.238.238,0,0,1,.053.23c-.059.25-.2.8-.224.908-.033.145-.118.178-.27.105A3.625,3.625,0,0,1,2.889,7.806c0-2.521,1.83-4.838,5.285-4.838a4.694,4.694,0,0,1,4.93,4.62c0,2.758-1.738,4.976-4.146,4.976a2.125,2.125,0,0,1-1.83-.921l-.5,1.9a8.712,8.712,0,0,1-.994,2.1A8,8,0,1,0,8,0Z" fill="#e60023"/>
</svg>
