<svg xmlns="http://www.w3.org/2000/svg" width="47.448" height="45.392" viewBox="0 0 47.448 45.392">
  <path id="equal-housing-opportunity" d="M5.457,38.389h-1.9V39.1H5.3v.633H3.559v.87H5.536v.633H2.847v-3.48h2.61v.633Zm2.372,1.9.316.316a.713.713,0,0,1-.4.079c-.4,0-.949-.237-.949-1.186s.554-1.186.949-1.186.949.237.949,1.186a1.579,1.579,0,0,1-.158.712l-.4-.316Zm1.582.791-.4-.4a1.855,1.855,0,0,0,.4-1.265c0-1.661-1.186-1.819-1.661-1.819a1.629,1.629,0,0,0-1.661,1.819c0,1.661,1.186,1.819,1.661,1.819A1.325,1.325,0,0,0,8.62,41l.4.4.4-.316Zm3.48-1.028c0,.949-.554,1.344-1.423,1.344A1.6,1.6,0,0,1,10.36,41a1.421,1.421,0,0,1-.237-.87V37.835h.712v2.293a.646.646,0,0,0,.633.711c.474,0,.712-.237.712-.633V37.913h.712v2.136Zm1.9-1.5h0l.474,1.344h-.87Zm-.633,1.977h1.265l.237.711h.791l-1.265-3.479h-.87l-1.265,3.48h.791l.316-.712Zm3.638.079h1.74v.633H17.081v-3.48h.712Zm4.508-.949v1.582h-.712v-3.48H22.3V39.1h1.344V37.756h.712v3.48h-.712V39.654Zm3.48-.158c0-.948.554-1.186.949-1.186s.949.237.949,1.186-.554,1.186-.949,1.186C26.334,40.761,25.78,40.524,25.78,39.5Zm-.712,0c0,1.661,1.186,1.82,1.661,1.82A1.63,1.63,0,0,0,28.39,39.5c0-1.661-1.186-1.819-1.661-1.819S25.068,37.835,25.068,39.5Zm6.8.554c0,.949-.554,1.344-1.423,1.344a1.6,1.6,0,0,1-1.107-.4,1.426,1.426,0,0,1-.237-.87V37.835h.712v2.293a.645.645,0,0,0,.633.711c.474,0,.712-.237.712-.633V37.913h.712v2.136Zm1.344.158c0,.158.079.554.712.554.316,0,.712-.079.712-.474,0-.237-.237-.316-.633-.4l-.4-.079c-.554-.158-1.107-.237-1.107-1.028,0-.4.238-1.107,1.344-1.107s1.344.712,1.344,1.107h-.712c0-.158-.079-.554-.711-.554-.316,0-.633.079-.633.4,0,.237.237.316.4.4l.87.237c.474.08.949.316.949.949,0,1.028-1.107,1.107-1.344,1.107-1.265,0-1.5-.712-1.5-1.186l.711.079Zm3.559,1.028h-.712v-3.48h.712v3.48Zm2.926-3.48h.633v3.48h-.712L38.2,38.705h0v2.531h-.712v-3.48h.791L39.7,40.208h0V37.756Zm3.084,1.582h1.5v1.9h-.474l-.079-.474a1.243,1.243,0,0,1-1.106.554,1.61,1.61,0,0,1-1.582-1.82,1.678,1.678,0,0,1,1.739-1.819c1.107,0,1.5.712,1.5,1.186h-.791a.736.736,0,0,0-.791-.554c-.554,0-1.028.4-1.028,1.266,0,.949.554,1.186,1.028,1.186a.911.911,0,0,0,.87-.791h-.791v-.633ZM3.48,44.794c0-.949.554-1.186.949-1.186s.949.237.949,1.186-.554,1.186-.949,1.186c-.4.079-.949-.158-.949-1.186Zm-.791,0c0,1.661,1.186,1.819,1.661,1.819a1.831,1.831,0,0,0,.079-3.638A1.718,1.718,0,0,0,2.689,44.794Zm5.377-.079V43.687H8.7c.474,0,.633.157.633.474,0,.158,0,.554-.554.554Zm0,.633h.87a1.053,1.053,0,0,0,1.107-1.107,1,1,0,0,0-1.107-1.106H7.354v3.479h.712V45.348Zm3.954-.633V43.687h.554c.474,0,.633.157.633.474,0,.158,0,.554-.554.554Zm0,.633h.87A1.053,1.053,0,0,0,14,44.241a1,1,0,0,0-1.107-1.106H11.308v3.479h.712V45.348Zm3.8-.554c0-.949.554-1.186.949-1.186s.949.237.949,1.186-.554,1.186-.949,1.186C16.37,46.059,15.816,45.822,15.816,44.794Zm-.712,0c0,1.661,1.186,1.819,1.661,1.819A1.826,1.826,0,1,0,15.1,44.794Zm5.3-.158v-.949h.949a.416.416,0,0,1,.474.474c0,.316-.158.474-.554.474Zm-.712,1.9H20.4V45.19h.791c.554,0,.554.158.554.633a1.561,1.561,0,0,0,.079.712h.791v-.079c-.158-.08-.158-.158-.158-.712,0-.633-.158-.791-.474-.87A.892.892,0,0,0,22.538,44a1,1,0,0,0-1.107-1.028h-1.74v3.559Zm5.615,0h-.712V43.687H23.566v-.633h2.847v.633H25.306Zm4.982-1.186c0,.949-.554,1.344-1.423,1.344a1.6,1.6,0,0,1-1.107-.4,1.421,1.421,0,0,1-.237-.87V43.134h.712v2.214a.646.646,0,0,0,.633.712c.474,0,.712-.238.712-.633V43.134h.712v2.214Zm3.48-2.293h.712v3.48h-.712L32.344,44h0v2.531h-.712v-3.48h.791l1.423,2.452h0l-.079-2.452Zm2.768,3.48h-.712v-3.48h.712v3.48Zm2.847,0H38.67V43.687H37.642v-.633h2.847v.633H39.461v2.847Zm3.8,0h-.712V45.19L41.28,42.975h.87l.712,1.5.712-1.5h.791L43.178,45.19v1.344ZM23.566,1.3,0,12.925v5.457H2.61v16.37H44.285V18.381h3.163V12.925ZM39.224,29.769H7.75V14.823L23.566,6.757l15.658,8.066V29.769Zm-8.462-9.648H16.132v-5.3H30.683v5.3h.079Zm0,7.592H16.132v-5.3H30.683v5.3Z" transform="translate(0 -1.3)" fill="#222"/>
</svg>
