<svg xmlns="http://www.w3.org/2000/svg" width="38.946" height="45.39" viewBox="0 0 38.946 45.39">
  <path id="logo-realtor" d="M41.747,0H4.5V37.247H41.747ZM24.327,4.461h4.178a7.048,7.048,0,0,1,6.585,7.081,6.972,6.972,0,0,1-6.585,6.939H24.327ZM20.291,32.573H9.74V4.461H20.22V32.573Zm4.036,0V18.553L38.914,32.573Zm17.774,6.8h.283l.212.5h.212l-.283-.5a.3.3,0,0,0,.283-.283c.071-.212-.071-.354-.425-.354h-.425v1.2H42.1v-.566Zm.071-.566h.212c.212,0,.354.071.354.212s-.071.212-.354.212h-.212ZM8.324,41.141a1.668,1.668,0,0,0-.779-1.487,2.224,2.224,0,0,0-1.416-.283H4.571v5.807h.637v-5.24h.85a1.811,1.811,0,0,1,1.275.283,1.286,1.286,0,0,1,.425.991,1.121,1.121,0,0,1-1.275,1.133H5.916l1.77,2.832h.708L6.978,42.912A1.66,1.66,0,0,0,8.324,41.141Zm24.5-1.841a2.724,2.724,0,0,0-2.054.85,3.107,3.107,0,0,0-.921,2.124,2.982,2.982,0,0,0,2.974,3.116A2.818,2.818,0,0,0,35.09,44.4a3.27,3.27,0,0,0,.779-2.124,2.693,2.693,0,0,0-.921-2.124A2.727,2.727,0,0,0,32.825,39.3Zm.142,5.523a2.48,2.48,0,0,1-2.478-2.549,2.6,2.6,0,0,1,.921-1.912,2.223,2.223,0,0,1,1.487-.5,2.481,2.481,0,0,1,.071,4.957Zm10.2-6.231a.967.967,0,0,0-.779-.283,1.18,1.18,0,0,0-.779.283.967.967,0,0,0-.283.779,1.145,1.145,0,0,1,.283-.708.944.944,0,0,1,.708-.283,1.014,1.014,0,0,1,.708.283.746.746,0,0,1,.283.708,1.145,1.145,0,0,1-.283.708,1.082,1.082,0,0,1-.708.283,1.145,1.145,0,0,1-.708-.283.944.944,0,0,1-.283-.708,1.18,1.18,0,0,0,.283.779.967.967,0,0,0,.779.283,1.18,1.18,0,0,0,.779-.283,1.213,1.213,0,0,0,0-1.558Zm-25.917.779L14.98,45.178h.708l.708-1.841h2.549l.708,1.841h.637l-2.266-5.807Zm-.708,3.47L17.6,39.867l1.133,2.974Zm-6.09,2.337h3.045v-.566H11.085V42.487h2.408v-.5H11.085V39.938h2.408V39.3H10.448Zm15.366-5.24h1.133v5.24h.566v-5.24h1.133V39.3h-2.9v.637Zm-3.257-.566h-.5v5.807h2.62v-.566H22.557Zm19.048,1.77a1.668,1.668,0,0,0-.779-1.487,2.224,2.224,0,0,0-1.416-.283H37.852v5.807h.637v-5.24h.85a1.811,1.811,0,0,1,1.275.283,1.286,1.286,0,0,1,.425.991,1.121,1.121,0,0,1-1.275,1.133h-.5l1.77,2.762h.708l-1.416-2.266C40.968,42.841,41.605,42.062,41.605,41.141Z" transform="translate(-4.5)" fill="#222"/>
</svg>
