<svg xmlns="http://www.w3.org/2000/svg" width="18" height="18" viewBox="0 0 18 18">
  <path id="Path" d="M9,0a9,9,0,0,0-3.28,17.378,8.661,8.661,0,0,1,.03-2.584c.163-.7,1.051-4.472,1.051-4.472a3.277,3.277,0,0,1-.267-1.333c0-1.251.726-2.184,1.629-2.184A1.131,1.131,0,0,1,9.3,8.071a17.787,17.787,0,0,1-.748,3A1.309,1.309,0,0,0,9.885,12.7c1.6,0,2.828-1.688,2.828-4.117A3.55,3.55,0,0,0,8.952,4.924a3.893,3.893,0,0,0-4.065,3.9,3.512,3.512,0,0,0,.666,2.051.268.268,0,0,1,.059.259c-.067.281-.222.9-.252,1.022-.037.163-.133.2-.3.118A4.078,4.078,0,0,1,3.251,8.782c0-2.836,2.058-5.442,5.946-5.442a5.28,5.28,0,0,1,5.546,5.2c0,3.1-1.955,5.6-4.665,5.6A2.391,2.391,0,0,1,8.019,13.1l-.563,2.14A9.8,9.8,0,0,1,6.338,17.6,9,9,0,1,0,9,0Z" fill="#fff"/>
</svg>
