<svg xmlns="http://www.w3.org/2000/svg" width="16.427" height="16.531" viewBox="0 0 16.427 16.531">
  <path id="Subtraction_4" data-name="Subtraction 4" d="M15.213,16.531h-14A1.2,1.2,0,0,1,0,15.347V1.184A1.2,1.2,0,0,1,1.214,0h14a1.2,1.2,0,0,1,1.214,1.184V15.347A1.2,1.2,0,0,1,15.213,16.531ZM2.5,6.374v7.465H4.98V6.374Zm6.335,0H6.353c.032.685,0,7.4,0,7.465H8.834V9.67a1.651,1.651,0,0,1,.082-.605,1.549,1.549,0,0,1,.447-.621,1.274,1.274,0,0,1,.826-.287,1.093,1.093,0,0,1,.965.468,2.167,2.167,0,0,1,.292,1.22v3.993h2.481V9.558c0-2.1-1.068-3.36-2.856-3.36A2.479,2.479,0,0,0,8.834,7.43Zm-5.078-3.6a1.293,1.293,0,1,0-.033,2.579h.016a1.294,1.294,0,1,0,.017-2.579Z" fill="#fff"/>
</svg>
