<svg xmlns="http://www.w3.org/2000/svg" width="16.369" height="16.385" viewBox="0 0 16.369 16.385">
  <path id="WA_Logo" data-name="WA Logo" d="M1.156,12.177A8.118,8.118,0,0,1,8.219,0a8.122,8.122,0,1,1,0,16.244h0a8.167,8.167,0,0,1-3.895-.988L0,16.385Zm3.612,1.755a6.785,6.785,0,0,0,3.448.941h0a6.771,6.771,0,0,0,6.774-6.748A6.762,6.762,0,0,0,8.221,1.371,6.747,6.747,0,0,0,2.48,11.71l.161.255-.684,2.49,2.564-.67ZM9.549,11.9a11.729,11.729,0,0,1-1.161-.427A9.064,9.064,0,0,1,4.909,8.414a3.938,3.938,0,0,1-.832-2.1A2.272,2.272,0,0,1,4.79,4.623a.749.749,0,0,1,.543-.254c.136,0,.272,0,.39.007h.046c.119,0,.267,0,.412.348.17.406.577,1.4.628,1.506a.372.372,0,0,1,.017.355,1.383,1.383,0,0,1-.2.338c-.1.118-.214.264-.305.355s-.208.211-.089.414A6.119,6.119,0,0,0,7.361,9.1,5.566,5.566,0,0,0,9,10.106c.2.1.322.085.441-.051s.509-.592.645-.8.272-.169.458-.1,1.188.559,1.392.66.339.152.39.237a1.69,1.69,0,0,1-.119.965,2.1,2.1,0,0,1-1.375.965,3.342,3.342,0,0,1-.494.039A2.592,2.592,0,0,1,9.549,11.9Z" fill="#fff"/>
</svg>
