<?xml version="1.0" encoding="utf-8"?>
<!-- Generator: Adobe Illustrator 24.1.0, SVG Export Plug-In . SVG Version: 6.00 Build 0)  -->
<svg version="1.1" id="Layer_1" xmlns="http://www.w3.org/2000/svg" xmlns:xlink="http://www.w3.org/1999/xlink" x="0px" y="0px"
	 width="73.26px" height="25px" viewBox="0 0 73.26 25" style="enable-background:new 0 0 73.26 25;" xml:space="preserve">
<style type="text/css">
	.st0{fill:#006AFF;}
</style>
<g>
	<g>
		<path class="st0" d="M45.73,20.06c0-2.83,2.28-4.93,5.08-4.93c2.77,0,5.05,2.1,5.05,4.93c0,2.84-2.28,4.94-5.05,4.94
			C48.01,25,45.73,22.9,45.73,20.06z M28.49,11.77v0.57c0,0.21-0.05,0.28-0.09,0.37L23,21.91c-0.01,0.02,0,0.04,0.02,0.04h5.76v2.74
			H18.41v-0.54c0-0.24,0.03-0.29,0.16-0.52l5.34-9.08c0.01-0.02,0-0.04-0.02-0.04h-5.32v-2.75H28.49z M61.8,24.69h-2.77l-3.01-9.31
			h2.98l0.86,2.82c0.29,0.93,0.77,2.69,0.77,2.69c0.01,0.02,0.04,0.02,0.04,0c0,0,0.5-1.79,0.78-2.69l0.9-2.82h2.2l0.89,2.82
			c0.3,0.96,0.77,2.69,0.77,2.69c0.01,0.02,0.03,0.02,0.05,0c0,0,0.48-1.74,0.77-2.69l0.86-2.82h2.77l-2.99,9.31h-2.72l-0.74-2.34
			c-0.28-0.92-0.78-2.7-0.78-2.7c-0.01-0.02-0.04-0.02-0.04,0c0,0-0.5,1.75-0.8,2.69L61.8,24.69z M33.71,24.69h-3.01v-9.31h3.01
			V24.69z M35.99,10.45H39v14.24h-3.01V10.45z M41.23,10.45h3.01v14.24h-3.01V10.45z M52.97,20.06c0-1.38-0.99-2.33-2.16-2.33
			c-1.2,0-2.19,0.95-2.19,2.33c0,1.4,0.99,2.33,2.19,2.33C51.98,22.39,52.97,21.46,52.97,20.06z M72.14,13.14
			c-0.62,0-1.12,0.5-1.12,1.12c0,0.62,0.5,1.12,1.12,1.12c0.62,0,1.12-0.5,1.12-1.12C73.26,13.64,72.76,13.14,72.14,13.14z
			 M72.14,15.17c-0.5,0-0.91-0.41-0.91-0.91c0-0.5,0.41-0.91,0.91-0.91c0.5,0,0.91,0.41,0.91,0.91
			C73.04,14.76,72.64,15.17,72.14,15.17z M72.2,13.59c0.26,0,0.45,0.19,0.45,0.46c0,0.2-0.11,0.36-0.28,0.42l0.26,0.42h-0.24
			l-0.24-0.39h-0.21v0.39h-0.21v-1.3H72.2z M72.19,13.78h-0.25v0.53h0.25c0.14,0,0.24-0.11,0.24-0.26
			C72.43,13.89,72.33,13.78,72.19,13.78z M32.2,10.71c0.94,0,1.71,0.76,1.71,1.69c0,0.93-0.78,1.69-1.71,1.69
			c-0.94,0-1.71-0.76-1.71-1.69C30.48,11.46,31.26,10.71,32.2,10.71z"/>
		<path class="st0" d="M3.71,23.12c-0.06,0.03-0.1,0.02-0.15-0.02l-1.28-1.53c-0.03-0.04-0.04-0.07,0.01-0.13
			c0.99-1.45,3.01-3.71,4.3-4.67c0.02-0.02,0.02-0.03-0.01-0.02C5.23,17.18,1.41,18.82,0,19.62v5.19h13.75v-5
			C11.88,20.13,6.26,21.8,3.71,23.12z M9.3,13.78c0.07-0.02,0.1,0.01,0.14,0.05c0.24,0.26,1,1.19,1.21,1.45
			c0.04,0.05,0.01,0.1-0.02,0.12c-1.54,1.2-3.25,2.9-4.2,4.11c-0.02,0.03,0,0.03,0.01,0.02c1.66-0.71,5.56-1.86,7.31-2.17v-2.22
			L6.89,9.7L0,15.13v2.43C2.14,16.3,7.07,14.33,9.3,13.78z"/>
	</g>
</g>
<g>
	<path class="st0" d="M0,5V0.09h1.85c0.33,0,0.58,0.02,0.75,0.05c0.24,0.04,0.44,0.12,0.61,0.23C3.37,0.48,3.5,0.64,3.6,0.84
		s0.15,0.43,0.15,0.67c0,0.42-0.13,0.77-0.4,1.06S2.61,3.01,1.91,3.01H0.65v2H0z M0.65,2.43h1.27c0.42,0,0.72-0.08,0.9-0.23
		c0.18-0.16,0.26-0.38,0.26-0.66c0-0.21-0.05-0.38-0.16-0.53c-0.1-0.15-0.24-0.24-0.41-0.29C2.41,0.68,2.2,0.67,1.91,0.67H0.65V2.43
		z"/>
	<path class="st0" d="M4.59,5V0.09h2.18c0.44,0,0.77,0.04,1,0.13s0.41,0.24,0.55,0.47s0.2,0.47,0.2,0.74c0,0.35-0.11,0.64-0.34,0.88
		C7.96,2.55,7.61,2.7,7.14,2.77c0.17,0.08,0.3,0.16,0.39,0.24C7.72,3.19,7.9,3.4,8.07,3.67L8.93,5H8.11L7.46,3.98
		C7.27,3.69,7.11,3.46,6.99,3.3S6.75,3.04,6.66,2.98s-0.2-0.11-0.3-0.13C6.29,2.83,6.16,2.82,6,2.82H5.24V5H4.59z M5.24,2.26h1.4
		c0.3,0,0.53-0.03,0.7-0.09c0.17-0.06,0.3-0.16,0.38-0.3c0.09-0.14,0.13-0.28,0.13-0.44c0-0.23-0.08-0.42-0.25-0.57
		S7.16,0.63,6.8,0.63H5.24V2.26z"/>
	<path class="st0" d="M9.34,2.61c0-0.82,0.22-1.46,0.66-1.92c0.44-0.46,1-0.69,1.7-0.69c0.45,0,0.86,0.11,1.23,0.33
		c0.36,0.22,0.64,0.52,0.83,0.91s0.29,0.83,0.29,1.32c0,0.5-0.1,0.94-0.3,1.34c-0.2,0.39-0.49,0.69-0.86,0.89s-0.77,0.3-1.19,0.3
		c-0.46,0-0.88-0.11-1.24-0.34c-0.36-0.22-0.64-0.53-0.83-0.92S9.34,3.04,9.34,2.61z M10.02,2.62c0,0.59,0.16,1.06,0.48,1.4
		c0.32,0.34,0.72,0.51,1.2,0.51c0.49,0,0.89-0.17,1.21-0.52c0.32-0.34,0.47-0.83,0.47-1.47c0-0.4-0.07-0.75-0.2-1.05
		s-0.33-0.53-0.59-0.69c-0.26-0.16-0.55-0.25-0.88-0.25c-0.46,0-0.86,0.16-1.19,0.47C10.18,1.35,10.02,1.88,10.02,2.62z"/>
	<path class="st0" d="M16.29,5l-1.91-4.92h0.7l1.28,3.57c0.1,0.29,0.19,0.55,0.26,0.8c0.08-0.27,0.16-0.54,0.26-0.8l1.33-3.57h0.66
		L16.96,5H16.29z"/>
	<path class="st0" d="M19.58,5V0.09h0.65V5H19.58z"/>
	<path class="st0" d="M21.38,5V0.09h1.69c0.38,0,0.67,0.02,0.88,0.07c0.28,0.06,0.52,0.18,0.72,0.35c0.26,0.22,0.45,0.5,0.58,0.84
		s0.19,0.73,0.19,1.17c0,0.37-0.04,0.7-0.13,0.99c-0.09,0.29-0.2,0.53-0.34,0.72s-0.29,0.34-0.45,0.45s-0.36,0.19-0.59,0.25
		C23.71,4.98,23.45,5,23.15,5H21.38z M22.03,4.42h1.05c0.32,0,0.58-0.03,0.76-0.09c0.18-0.06,0.33-0.15,0.44-0.25
		c0.15-0.15,0.27-0.36,0.36-0.62c0.09-0.26,0.13-0.58,0.13-0.95c0-0.51-0.08-0.91-0.25-1.19s-0.37-0.46-0.62-0.56
		c-0.17-0.07-0.46-0.1-0.84-0.1h-1.03V4.42z"/>
	<path class="st0" d="M26.35,5V0.09h3.56v0.58H27v1.51h2.72v0.58H27v1.67h3.02V5H26.35z"/>
	<path class="st0" d="M30.92,5V0.09h1.69c0.38,0,0.67,0.02,0.88,0.07c0.28,0.06,0.52,0.18,0.72,0.35c0.26,0.22,0.45,0.5,0.58,0.84
		s0.19,0.73,0.19,1.17c0,0.37-0.04,0.7-0.13,0.99c-0.09,0.29-0.2,0.53-0.34,0.72c-0.14,0.19-0.29,0.34-0.45,0.45
		c-0.16,0.11-0.36,0.19-0.59,0.25C33.25,4.98,32.99,5,32.69,5H30.92z M31.57,4.42h1.05c0.32,0,0.58-0.03,0.76-0.09
		c0.18-0.06,0.33-0.15,0.44-0.25c0.15-0.15,0.27-0.36,0.36-0.62c0.09-0.26,0.13-0.58,0.13-0.95c0-0.51-0.08-0.91-0.25-1.19
		s-0.37-0.46-0.62-0.56c-0.17-0.07-0.46-0.1-0.84-0.1h-1.03V4.42z"/>
	<path class="st0" d="M37.76,5V0.09h1.84c0.38,0,0.68,0.05,0.9,0.15c0.23,0.1,0.4,0.25,0.53,0.46s0.19,0.42,0.19,0.65
		c0,0.21-0.06,0.41-0.17,0.59s-0.29,0.34-0.52,0.45c0.3,0.09,0.53,0.24,0.69,0.45c0.16,0.21,0.24,0.46,0.24,0.74
		c0,0.23-0.05,0.44-0.15,0.64c-0.1,0.2-0.22,0.35-0.36,0.46c-0.14,0.11-0.32,0.19-0.54,0.24C40.21,4.98,39.95,5,39.64,5H37.76z
		 M38.41,2.15h1.06c0.29,0,0.5-0.02,0.62-0.06c0.17-0.05,0.29-0.13,0.37-0.24c0.08-0.11,0.13-0.26,0.13-0.43
		c0-0.16-0.04-0.31-0.12-0.43s-0.19-0.21-0.34-0.25C40,0.69,39.75,0.67,39.39,0.67h-0.98V2.15z M38.41,4.42h1.22
		c0.21,0,0.36-0.01,0.44-0.02c0.15-0.03,0.28-0.07,0.38-0.13s0.18-0.15,0.25-0.27s0.1-0.26,0.1-0.41c0-0.18-0.05-0.34-0.14-0.48
		s-0.22-0.23-0.39-0.29s-0.41-0.08-0.72-0.08h-1.14V4.42z"/>
	<path class="st0" d="M43.75,5V2.92l-1.9-2.83h0.79l0.97,1.48c0.18,0.28,0.35,0.55,0.5,0.83c0.15-0.26,0.33-0.55,0.54-0.87
		l0.95-1.45h0.76l-1.96,2.83V5H43.75z"/>
</g>
</svg>
