<svg xmlns="http://www.w3.org/2000/svg" width="13.912" height="14" viewBox="0 0 13.912 14">
  <path id="Subtraction_3" data-name="Subtraction 3" d="M12.884,14H1.028A1.017,1.017,0,0,1,0,13V1A1.017,1.017,0,0,1,1.028,0H12.884a1.017,1.017,0,0,1,1.028,1V13A1.017,1.017,0,0,1,12.884,14ZM2.116,5.4V11.72h2.1V5.4Zm5.365,0H5.38c.027.58,0,6.266,0,6.322h2.1V8.189a1.4,1.4,0,0,1,.069-.513,1.312,1.312,0,0,1,.378-.526,1.079,1.079,0,0,1,.7-.243.926.926,0,0,1,.817.4,1.835,1.835,0,0,1,.247,1.033v3.382h2.1V8.095c0-1.782-.9-2.845-2.419-2.845A2.1,2.1,0,0,0,7.481,6.293ZM3.181,2.35a1.1,1.1,0,1,0-.028,2.184h.014A1.1,1.1,0,1,0,3.181,2.35Z" fill="#0a66c1"/>
</svg>
