<svg id="Logo__x2014__FIXED" xmlns="http://www.w3.org/2000/svg" width="14.758" height="12" viewBox="0 0 14.758 12">
  <path id="Path_191" data-name="Path 191" d="M94.33,126.5a8.562,8.562,0,0,0,8.62-8.62c0-.132,0-.264-.006-.389a6.207,6.207,0,0,0,1.514-1.571,6.15,6.15,0,0,1-1.74.477,3.028,3.028,0,0,0,1.332-1.677,6.134,6.134,0,0,1-1.922.735,3.031,3.031,0,0,0-5.24,2.073,2.777,2.777,0,0,0,.082.691,8.594,8.594,0,0,1-6.245-3.166,3.028,3.028,0,0,0,.942,4.04,2.976,2.976,0,0,1-1.37-.377v.038a3.033,3.033,0,0,0,2.431,2.972,3.02,3.02,0,0,1-.8.107,2.892,2.892,0,0,1-.572-.057,3.025,3.025,0,0,0,2.827,2.1,6.09,6.09,0,0,1-3.763,1.294,5.511,5.511,0,0,1-.723-.044,8.441,8.441,0,0,0,4.63,1.37" transform="translate(-89.7 -114.5)" fill="#00aced"/>
</svg>
