<svg xmlns="http://www.w3.org/2000/svg" width="13.863" height="13.876" viewBox="0 0 13.863 13.876">
  <path id="WA_Logo" data-name="WA Logo" d="M397.99,323.151a6.907,6.907,0,1,1,5.981,3.444h0a6.917,6.917,0,0,1-3.3-.837l-3.659.956Zm3.059,1.486a5.746,5.746,0,0,0,2.92.8h0a5.734,5.734,0,0,0,5.737-5.715A5.727,5.727,0,0,0,403.973,314a5.714,5.714,0,0,0-4.862,8.756l.136.216-.58,2.109,2.171-.567Zm4.049-1.717a9.936,9.936,0,0,1-.983-.362,7.676,7.676,0,0,1-2.946-2.594,3.335,3.335,0,0,1-.7-1.777,1.924,1.924,0,0,1,.6-1.433.635.635,0,0,1,.46-.215c.115,0,.23,0,.331.006h.039c.1,0,.226,0,.349.294.144.344.489,1.19.532,1.276a.315.315,0,0,1,.014.3,1.172,1.172,0,0,1-.172.287c-.086.1-.181.224-.259.3s-.176.179-.076.351a5.182,5.182,0,0,0,.959,1.19,4.714,4.714,0,0,0,1.387.853c.172.086.273.072.374-.043s.431-.5.546-.674.23-.143.388-.086,1.006.473,1.178.559.287.129.331.2a1.431,1.431,0,0,1-.1.817,1.776,1.776,0,0,1-1.164.817,2.83,2.83,0,0,1-.419.033A2.2,2.2,0,0,1,405.1,322.92Z" transform="translate(-397.011 -312.838)" fill="#25d366"/>
</svg>
